<svg width="427" height="427" viewBox="0 0 427 427" fill="none" xmlns="http://www.w3.org/2000/svg">
<circle cx="213.5" cy="213.5" r="213.5" fill="#2443DD"/>
<circle cx="213.5" cy="213.5" r="213.5" fill="url(#paint0_linear_1_7)" fill-opacity="0.97"/>
<g filter="url(#filter0_i_1_7)">
<path d="M170.172 247.191C179.248 244.523 188.107 241.466 196.749 238.019C205.392 234.572 213.81 230.569 222.004 226.01C230.588 221.233 238.088 216.039 244.504 210.428C250.978 204.614 255.833 198.339 259.069 191.604C262.362 184.666 263.799 177.145 263.378 169.041C262.957 160.937 260.107 152.142 254.829 142.657C250.564 134.99 245.619 128.552 239.996 123.343C234.372 118.134 228.214 114.413 221.521 112.18C214.959 109.876 208 109.153 200.643 110.013C193.214 110.743 185.533 113.316 177.599 117.73C170.185 121.855 164.246 126.946 159.781 133.004C155.447 138.989 152.305 145.587 150.355 152.797C148.464 159.806 147.591 167.268 147.737 175.185C148.014 183.029 148.955 190.843 150.561 198.628C152.168 206.413 154.395 213.937 157.244 221.201C160.093 228.464 163.181 235.085 166.506 241.062C167.085 242.102 167.663 243.141 168.242 244.181C168.82 245.22 169.463 246.224 170.172 247.191ZM307.96 112.33C313.093 121.556 316.189 130.639 317.246 139.58C318.231 148.391 317.64 156.973 315.474 165.325C313.438 173.605 310.087 181.511 305.42 189.042C300.754 196.573 295.27 203.708 288.97 210.447C282.598 217.055 275.604 223.159 267.988 228.757C260.503 234.284 252.923 239.182 245.249 243.451C235.494 248.879 225.508 253.584 215.291 257.567C205.001 261.421 194.407 264.422 183.51 266.571C189.712 274.351 196.543 281.271 204.002 287.331C211.39 293.261 219.311 297.702 227.767 300.655C236.151 303.478 245.054 304.48 254.478 303.661C264.031 302.77 274.01 299.43 284.416 293.641C291.309 289.805 297.299 285.111 302.385 279.559C307.471 274.006 311.567 267.898 314.673 261.235C317.779 254.572 319.837 247.556 320.847 240.188C321.987 232.747 322.021 225.155 320.95 217.413L355.29 212.09C356.71 224.744 355.744 236.937 352.394 248.671C349.101 260.203 344.081 271.079 337.334 281.299C330.644 291.318 322.618 300.463 313.254 308.736C304.02 316.937 294.201 323.932 283.795 329.721C266.627 339.273 249.169 345.243 231.421 347.63C213.6 349.888 196.53 348.75 180.211 344.216C163.892 339.682 148.729 331.868 134.721 320.773C120.713 309.679 108.937 295.555 99.3937 278.403C89.8503 261.25 84.0576 243.798 82.0154 226.046C79.9732 208.293 81.3278 191.289 86.0791 175.032C90.8303 158.775 98.899 143.735 110.285 129.913C121.599 115.96 135.84 104.208 153.008 94.6556C161.332 90.0242 170.177 85.869 179.542 82.1899C188.907 78.5109 198.409 75.6913 208.049 73.7311C217.617 71.641 227.163 70.5838 236.688 70.5595C246.212 70.5352 255.304 72.0282 263.962 75.0386C272.678 77.8466 280.766 82.2805 288.226 88.3403C295.815 94.3276 302.393 102.324 307.96 112.33Z" fill="url(#paint1_linear_1_7)"/>
</g>
<defs>
<filter id="filter0_i_1_7" x="81.0945" y="70.5592" width="274.829" height="282.197" filterUnits="userSpaceOnUse" color-interpolation-filters="sRGB">
<feFlood flood-opacity="0" result="BackgroundImageFix"/>
<feBlend mode="normal" in="SourceGraphic" in2="BackgroundImageFix" result="shape"/>
<feColorMatrix in="SourceAlpha" type="matrix" values="0 0 0 0 0 0 0 0 0 0 0 0 0 0 0 0 0 0 127 0" result="hardAlpha"/>
<feOffset dy="4"/>
<feGaussianBlur stdDeviation="2"/>
<feComposite in2="hardAlpha" operator="arithmetic" k2="-1" k3="1"/>
<feColorMatrix type="matrix" values="0 0 0 0 0 0 0 0 0 0 0 0 0 0 0 0 0 0 0.25 0"/>
<feBlend mode="normal" in2="shape" result="effect1_innerShadow_1_7"/>
</filter>
<linearGradient id="paint0_linear_1_7" x1="-6.5" y1="-18" x2="372.5" y2="414.5" gradientUnits="userSpaceOnUse">
<stop stop-color="#EF5454" stop-opacity="0.88"/>
<stop offset="0.999343" stop-color="#32228B"/>
</linearGradient>
<linearGradient id="paint1_linear_1_7" x1="35.1849" y1="119.498" x2="404.011" y2="280.189" gradientUnits="userSpaceOnUse">
<stop stop-color="white"/>
<stop offset="1" stop-color="#F9F9F9"/>
</linearGradient>
</defs>
</svg>
